<mxfile host="app.diagrams.net" modified="2020-08-15T06:59:48.032Z" agent="5.0 (Windows)" etag="tECnt-Ujkznm5wpjQOFy" version="13.6.2" type="github">
  <diagram id="9VLlVzjnPNcuD92wcZcl" name="Page-1">
    <mxGraphModel dx="982" dy="535" grid="1" gridSize="10" guides="1" tooltips="1" connect="1" arrows="1" fold="1" page="1" pageScale="1" pageWidth="827" pageHeight="1169" math="0" shadow="0">
      <root>
        <mxCell id="0" />
        <mxCell id="1" parent="0" />
        <mxCell id="pHHOU7coUqiVtEZ5p5Hh-7" value="" style="edgeStyle=orthogonalEdgeStyle;rounded=0;orthogonalLoop=1;jettySize=auto;html=1;fontFamily=Times New Roman;fontSize=20;" edge="1" parent="1" source="pHHOU7coUqiVtEZ5p5Hh-1" target="pHHOU7coUqiVtEZ5p5Hh-2">
          <mxGeometry relative="1" as="geometry" />
        </mxCell>
        <mxCell id="pHHOU7coUqiVtEZ5p5Hh-1" value="&lt;div style=&quot;font-size: 20px;&quot;&gt;Human&lt;/div&gt;" style="shape=umlActor;verticalLabelPosition=middle;verticalAlign=middle;html=1;outlineConnect=0;fontFamily=Times New Roman;fontSize=20;labelPosition=right;align=left;" vertex="1" parent="1">
          <mxGeometry x="110" y="120" width="30" height="60" as="geometry" />
        </mxCell>
        <mxCell id="pHHOU7coUqiVtEZ5p5Hh-8" style="edgeStyle=orthogonalEdgeStyle;rounded=0;orthogonalLoop=1;jettySize=auto;html=1;entryX=0;entryY=0.5;entryDx=0;entryDy=0;fontFamily=Times New Roman;fontSize=20;" edge="1" parent="1" source="pHHOU7coUqiVtEZ5p5Hh-2" target="pHHOU7coUqiVtEZ5p5Hh-3">
          <mxGeometry relative="1" as="geometry" />
        </mxCell>
        <mxCell id="pHHOU7coUqiVtEZ5p5Hh-2" value="SSVEP" style="ellipse;whiteSpace=wrap;html=1;fontFamily=Times New Roman;fontSize=20;" vertex="1" parent="1">
          <mxGeometry x="65" y="240" width="120" height="80" as="geometry" />
        </mxCell>
        <mxCell id="pHHOU7coUqiVtEZ5p5Hh-9" style="edgeStyle=orthogonalEdgeStyle;rounded=0;orthogonalLoop=1;jettySize=auto;html=1;entryX=0;entryY=0.5;entryDx=0;entryDy=0;fontFamily=Times New Roman;fontSize=20;" edge="1" parent="1" source="pHHOU7coUqiVtEZ5p5Hh-3" target="pHHOU7coUqiVtEZ5p5Hh-5">
          <mxGeometry relative="1" as="geometry" />
        </mxCell>
        <mxCell id="pHHOU7coUqiVtEZ5p5Hh-3" value="MSI recognition" style="ellipse;whiteSpace=wrap;html=1;fontFamily=Times New Roman;fontSize=20;" vertex="1" parent="1">
          <mxGeometry x="270" y="240" width="120" height="80" as="geometry" />
        </mxCell>
        <mxCell id="pHHOU7coUqiVtEZ5p5Hh-11" style="edgeStyle=orthogonalEdgeStyle;rounded=0;orthogonalLoop=1;jettySize=auto;html=1;entryX=0.5;entryY=0;entryDx=0;entryDy=0;fontFamily=Times New Roman;fontSize=20;" edge="1" parent="1" source="pHHOU7coUqiVtEZ5p5Hh-4" target="pHHOU7coUqiVtEZ5p5Hh-3">
          <mxGeometry relative="1" as="geometry" />
        </mxCell>
        <mxCell id="pHHOU7coUqiVtEZ5p5Hh-4" value="&lt;span class=&quot;tlid-translation translation&quot; style=&quot;font-size: 20px;&quot; lang=&quot;en&quot;&gt;&lt;span title=&quot;&quot; class=&quot;&quot; style=&quot;font-size: 20px;&quot;&gt;Reference signals&lt;/span&gt;&lt;/span&gt;" style="ellipse;whiteSpace=wrap;html=1;fontFamily=Times New Roman;fontSize=20;" vertex="1" parent="1">
          <mxGeometry x="270" y="120" width="120" height="80" as="geometry" />
        </mxCell>
        <mxCell id="pHHOU7coUqiVtEZ5p5Hh-12" style="edgeStyle=orthogonalEdgeStyle;rounded=0;orthogonalLoop=1;jettySize=auto;html=1;entryX=0.5;entryY=0;entryDx=0;entryDy=0;entryPerimeter=0;fontFamily=Times New Roman;fontSize=20;" edge="1" parent="1" source="pHHOU7coUqiVtEZ5p5Hh-5" target="pHHOU7coUqiVtEZ5p5Hh-1">
          <mxGeometry relative="1" as="geometry">
            <Array as="points">
              <mxPoint x="600" y="280" />
              <mxPoint x="600" y="100" />
              <mxPoint x="125" y="100" />
            </Array>
          </mxGeometry>
        </mxCell>
        <mxCell id="pHHOU7coUqiVtEZ5p5Hh-13" style="edgeStyle=orthogonalEdgeStyle;rounded=0;orthogonalLoop=1;jettySize=auto;html=1;fontFamily=Times New Roman;fontSize=20;exitX=0.5;exitY=1;exitDx=0;exitDy=0;" edge="1" parent="1" source="pHHOU7coUqiVtEZ5p5Hh-5">
          <mxGeometry relative="1" as="geometry">
            <mxPoint x="520" y="360" as="targetPoint" />
            <Array as="points">
              <mxPoint x="520" y="360" />
              <mxPoint x="520" y="360" />
            </Array>
          </mxGeometry>
        </mxCell>
        <mxCell id="pHHOU7coUqiVtEZ5p5Hh-5" value="&lt;span class=&quot;tlid-translation translation&quot; style=&quot;font-size: 20px;&quot; lang=&quot;en&quot;&gt;&lt;span title=&quot;&quot; class=&quot;&quot; style=&quot;font-size: 20px;&quot;&gt;EEG state&lt;/span&gt;&lt;/span&gt;" style="ellipse;whiteSpace=wrap;html=1;fontFamily=Times New Roman;fontSize=20;" vertex="1" parent="1">
          <mxGeometry x="460" y="240" width="120" height="80" as="geometry" />
        </mxCell>
        <mxCell id="pHHOU7coUqiVtEZ5p5Hh-14" value="Command generation" style="strokeWidth=1;shape=mxgraph.flowchart.annotation_2;align=right;labelPosition=left;pointerEvents=1;fontFamily=Times New Roman;fontSize=20;direction=west;spacing=2;verticalLabelPosition=middle;verticalAlign=middle;labelBackgroundColor=none;labelBorderColor=none;html=1;" vertex="1" parent="1">
          <mxGeometry x="460" y="320" width="60" height="40" as="geometry" />
        </mxCell>
      </root>
    </mxGraphModel>
  </diagram>
</mxfile>
